<?xml version="1.0" standalone="no"?>
<!DOCTYPE svg PUBLIC "-//W3C//DTD SVG 20010904//EN"
 "http://www.w3.org/TR/2001/REC-SVG-20010904/DTD/svg10.dtd">
<svg version="1.0" xmlns="http://www.w3.org/2000/svg"
 width="1335.000000pt" height="1173.000000pt" viewBox="0 0 1335.000000 1173.000000"
 preserveAspectRatio="xMidYMid meet">

<g transform="translate(0.000000,1173.000000) scale(0.100000,-0.100000)"
fill="#000000" stroke="none">
<path d="M4698 11233 c-8 -10 -43 -72 -78 -138 -71 -135 -127 -242 -175 -330
-18 -33 -55 -103 -82 -155 -158 -299 -319 -601 -343 -645 -15 -27 -59 -111
-98 -185 -39 -74 -82 -155 -96 -180 -14 -25 -29 -52 -33 -60 -7 -16 -137 -262
-205 -390 -22 -41 -63 -118 -90 -170 -28 -52 -65 -122 -83 -155 -18 -33 -58
-109 -90 -170 -32 -60 -70 -132 -85 -160 -15 -27 -51 -95 -80 -150 -29 -55
-70 -131 -90 -170 -21 -38 -97 -182 -170 -320 -73 -137 -145 -272 -160 -300
-15 -27 -51 -95 -80 -150 -29 -55 -72 -136 -95 -180 -64 -121 -123 -233 -222
-420 -50 -93 -106 -199 -125 -235 -19 -36 -59 -110 -88 -165 -29 -55 -103
-194 -165 -310 -62 -115 -140 -264 -175 -330 -34 -66 -70 -133 -80 -150 -9
-16 -41 -75 -70 -130 -96 -183 -152 -289 -193 -365 -22 -41 -62 -118 -90 -170
-27 -52 -61 -117 -77 -145 -32 -58 -81 -150 -215 -405 -134 -253 -248 -469
-300 -565 -49 -89 -136 -255 -156 -295 -11 -23 -14 -39 -8 -47 11 -13 1213
-14 1239 0 9 4 54 80 100 170 47 89 90 171 97 182 7 11 16 27 20 35 4 8 37 71
73 140 37 69 90 168 117 220 76 144 149 282 220 413 34 65 63 120 63 122 0 2
15 30 33 62 19 32 69 126 112 208 43 83 90 173 105 200 15 28 46 86 70 130 23
44 59 112 80 150 20 39 63 120 95 180 32 61 86 162 120 225 34 63 88 165 120
225 32 61 92 175 135 255 154 290 248 467 300 565 29 55 86 161 125 235 40 74
97 182 127 240 30 58 71 134 90 170 20 36 53 99 75 140 22 41 58 109 80 150
117 219 221 414 258 485 186 357 248 468 260 468 6 0 28 -36 51 -79 61 -119
173 -332 204 -389 36 -67 87 -160 145 -270 26 -49 64 -121 85 -160 21 -38 61
-114 89 -167 28 -54 74 -142 102 -195 28 -54 64 -120 79 -148 66 -118 90 -169
90 -188 0 -11 -40 -95 -89 -186 -48 -91 -114 -215 -146 -276 -32 -60 -71 -135
-88 -165 -16 -30 -65 -125 -109 -210 -45 -85 -109 -207 -143 -270 -34 -63 -72
-135 -84 -160 -13 -25 -42 -79 -64 -120 -22 -41 -47 -88 -55 -105 -8 -16 -32
-59 -52 -95 -21 -36 -74 -137 -120 -225 -45 -88 -109 -208 -141 -267 -33 -59
-59 -108 -59 -111 0 -2 -22 -44 -48 -93 -53 -98 -136 -253 -190 -354 -100
-190 -127 -240 -157 -295 -18 -33 -53 -98 -77 -145 -25 -47 -71 -134 -103
-195 -244 -458 -261 -493 -251 -502 4 -4 283 -8 620 -8 495 0 616 3 629 13 9
8 62 100 118 205 226 426 255 480 374 707 59 113 123 231 141 263 19 32 34 61
34 64 0 3 39 78 87 167 47 88 102 190 121 226 19 36 65 121 102 190 62 116 93
173 222 415 27 50 71 135 98 190 61 123 73 140 87 123 6 -7 47 -83 91 -168
146 -283 226 -429 272 -500 5 -8 21 -35 35 -60 73 -129 94 -163 142 -231 259
-365 597 -695 975 -953 54 -36 100 -66 102 -66 3 0 24 -13 48 -29 88 -59 389
-214 513 -263 364 -146 738 -241 1060 -269 336 -29 429 -29 775 0 394 33 835
156 1234 345 110 53 282 147 366 201 128 81 188 124 341 238 96 73 327 285
334 307 6 20 3 28 -208 420 -132 245 -199 370 -269 507 -35 68 -59 103 -70
103 -9 0 -59 -49 -111 -108 -259 -296 -616 -555 -967 -700 -425 -177 -843
-240 -1300 -197 -335 31 -620 115 -935 272 -143 72 -333 194 -465 299 -103 82
-339 317 -401 398 -165 218 -196 268 -334 531 -32 61 -84 159 -117 218 -33 60
-66 123 -74 140 -8 18 -29 59 -47 92 -19 33 -80 148 -137 255 -56 107 -120
227 -140 265 -21 39 -57 108 -80 155 -24 47 -62 119 -85 160 -23 41 -70 129
-105 195 -35 66 -94 179 -133 250 -38 72 -90 168 -115 215 -57 109 -204 386
-250 470 -41 77 -178 334 -252 475 -29 55 -89 168 -133 250 -44 83 -118 222
-164 310 -47 88 -116 216 -153 285 -37 69 -100 188 -140 265 -107 206 -158
302 -315 595 -78 146 -173 324 -210 395 -37 72 -71 131 -74 133 -4 1 -14 -5
-23 -15z"/>
<path d="M9525 11023 c-45 -4 -204 -26 -345 -48 -377 -59 -873 -242 -1240
-457 -328 -193 -669 -474 -921 -758 -123 -138 -127 -151 -85 -230 119 -227
218 -414 241 -455 15 -27 54 -102 88 -165 33 -63 79 -149 101 -190 23 -41 56
-105 74 -142 22 -44 39 -68 50 -68 11 0 30 25 52 67 93 177 257 388 447 574
171 168 329 291 513 399 69 40 330 168 377 184 445 155 827 204 1249 161 185
-19 341 -53 536 -115 91 -29 267 -99 333 -134 17 -9 33 -16 37 -16 4 0 67 -36
140 -79 244 -145 424 -287 620 -490 73 -75 123 -119 131 -115 8 3 26 28 40 57
59 116 384 725 397 742 4 6 29 52 55 103 41 78 47 97 39 119 -10 29 -145 153
-281 259 -209 162 -488 335 -710 441 -62 29 -115 53 -119 53 -3 0 -29 11 -58
24 -89 41 -300 115 -419 146 -62 17 -125 34 -142 39 -26 8 -104 23 -315 62
-155 28 -326 39 -580 37 -146 -1 -283 -3 -305 -5z"/>
<path d="M7985 2825 c-224 -52 -385 -194 -457 -404 -32 -94 -32 -287 1 -376
68 -186 191 -308 396 -390 52 -22 248 -31 340 -17 111 18 237 85 317 170 120
128 168 248 168 424 0 168 -44 285 -151 403 -153 167 -391 241 -614 190z m295
-274 c134 -68 197 -212 171 -387 -13 -90 -38 -142 -95 -199 -56 -56 -125 -80
-231 -79 -99 0 -150 14 -205 58 -90 71 -125 166 -118 320 8 162 78 261 218
307 14 5 68 7 120 6 76 -3 104 -8 140 -26z"/>
<path d="M9375 2825 c-144 -32 -254 -93 -348 -194 -62 -68 -96 -125 -126 -211
-30 -85 -30 -290 -1 -375 65 -188 215 -334 405 -392 74 -22 316 -25 380 -4
152 50 277 154 344 288 35 71 60 182 63 283 l3 95 -306 3 -307 2 -6 -22 c-8
-33 -7 -191 2 -205 5 -9 53 -13 157 -15 144 -3 150 -4 147 -23 -2 -11 -15 -37
-29 -57 -90 -132 -326 -155 -468 -46 -79 61 -116 149 -116 278 -1 153 60 259
183 316 57 26 73 29 163 28 109 0 155 -16 239 -83 21 -17 46 -31 55 -31 21 0
171 150 171 172 0 26 -43 70 -102 106 -146 87 -344 122 -503 87z"/>
<path d="M10695 2825 c-196 -41 -352 -166 -436 -350 -55 -122 -63 -306 -18
-438 45 -130 156 -261 284 -332 111 -63 144 -70 310 -70 130 0 159 3 215 23
252 87 414 311 413 572 0 175 -52 298 -178 426 -61 62 -97 89 -155 117 -132
63 -291 82 -435 52z m303 -280 c69 -38 98 -67 135 -140 28 -56 31 -67 31 -165
0 -86 -5 -116 -24 -165 -68 -175 -286 -247 -468 -154 -80 41 -121 95 -153 201
-42 138 -7 284 89 376 72 68 117 83 242 79 83 -2 102 -6 148 -32z"/>
<path d="M1707 2813 c-4 -3 -7 -266 -7 -584 0 -517 2 -577 16 -583 20 -8 238
-8 258 0 14 5 16 43 16 325 0 175 2 319 5 319 10 0 41 -34 83 -90 22 -30 65
-85 94 -122 57 -72 132 -166 255 -323 48 -61 88 -102 103 -106 43 -12 178 -10
186 3 10 16 5 1151 -5 1161 -4 4 -66 6 -137 5 l-129 -3 -3 -327 c-1 -185 -6
-328 -11 -328 -5 0 -33 30 -63 67 -29 36 -64 80 -78 97 -60 75 -258 326 -299
380 -91 118 -88 116 -189 116 -49 0 -92 -3 -95 -7z"/>
<path d="M3328 2810 c-9 -6 -29 -43 -44 -83 -52 -138 -96 -252 -109 -282 -11
-27 -52 -134 -90 -235 -7 -19 -27 -69 -44 -110 -17 -41 -42 -104 -55 -140 -38
-106 -83 -222 -100 -263 -9 -21 -14 -42 -11 -47 4 -6 64 -10 135 -10 118 0
131 2 149 21 11 12 22 33 26 47 3 15 16 53 27 85 l21 57 225 -2 225 -3 23 -65
c13 -36 23 -72 24 -81 0 -9 9 -24 21 -35 17 -15 40 -19 130 -22 115 -4 159 1
159 20 0 12 -83 236 -130 353 -16 39 -42 106 -59 150 -17 44 -49 127 -71 185
-23 58 -71 184 -106 280 -36 96 -71 178 -77 182 -18 11 -249 9 -269 -2z m149
-362 c6 -13 35 -99 66 -193 l55 -170 -62 -8 c-61 -8 -202 -5 -211 5 -5 5 93
311 116 361 15 33 22 34 36 5z"/>
<path d="M4177 2813 c-4 -3 -7 -263 -7 -578 0 -431 3 -574 12 -583 8 -8 52
-12 133 -12 81 0 125 4 133 12 15 15 16 221 1 409 -8 106 -8 143 2 160 l12 23
24 -30 c13 -16 60 -85 104 -154 45 -69 88 -131 97 -137 10 -8 47 -13 97 -13
98 0 87 -10 210 183 89 138 101 154 112 143 4 -3 7 -138 7 -298 l1 -293 129
-3 c86 -2 133 1 142 9 19 16 21 1138 2 1157 -8 8 -45 12 -100 12 -95 0 -105
-5 -144 -67 -10 -15 -86 -132 -170 -258 -83 -127 -156 -241 -163 -253 -6 -12
-18 -22 -26 -22 -11 0 -169 222 -195 275 -13 26 -206 311 -215 317 -13 10
-189 10 -198 1z"/>
<path d="M5627 2813 c-4 -3 -7 -266 -7 -584 0 -517 2 -577 16 -583 20 -8 818
-8 838 0 13 5 16 25 16 120 0 84 -3 114 -12 115 -7 0 -137 1 -288 2 l-275 2
-3 114 c-2 85 1 117 10 123 7 4 122 8 254 8 211 0 243 2 248 16 3 9 6 55 6
104 0 64 -4 91 -14 99 -11 9 -81 12 -255 10 -133 -1 -244 1 -248 5 -11 11 -3
200 9 207 6 4 128 6 271 5 200 -1 263 2 273 11 9 10 12 39 8 111 -3 53 -7 103
-9 110 -3 9 -96 12 -418 12 -228 0 -417 -3 -420 -7z"/>
<path d="M6672 2808 c-17 -17 -18 -1138 0 -1156 19 -19 761 -17 777 2 8 9 11
51 9 122 l-3 109 -245 3 c-151 1 -248 6 -255 13 -6 6 -12 171 -15 462 l-5 452
-125 3 c-89 2 -129 -1 -138 -10z"/>
<path d="M6925 1320 c-3 -5 -11 -7 -18 -5 -17 7 -78 -32 -75 -47 2 -8 -5 -12
-15 -10 -9 2 -16 -1 -15 -5 1 -4 -6 -22 -15 -40 -9 -18 -17 -50 -17 -73 0
-165 196 -249 303 -131 56 63 68 148 31 222 -19 38 -74 81 -95 76 -10 -3 -23
1 -30 9 -13 16 -45 19 -54 4z m137 -92 c38 -70 15 -203 -39 -227 -32 -15 -112
-14 -143 2 -43 22 -70 73 -70 136 0 92 41 140 128 151 58 8 99 -13 124 -62z"/>
<path d="M9275 1321 l-30 -6 -3 -113 c-2 -93 0 -112 12 -112 8 0 21 9 29 21 9
13 17 16 22 10 7 -13 81 -15 89 -2 9 13 -41 31 -72 25 -43 -9 -55 13 -45 83
l8 58 40 5 c47 7 72 -2 101 -37 29 -34 49 -22 29 16 -24 48 -100 69 -180 52z"/>
<path d="M3340 1305 c-8 -10 -10 -30 -4 -67 4 -29 7 -55 7 -58 -9 -45 -13
-114 -8 -130 3 -11 14 -20 23 -20 15 0 15 2 2 10 -9 6 -10 10 -3 10 9 0 12 27
10 103 -2 56 1 109 7 118 10 18 2 49 -12 49 -5 0 -15 -7 -22 -15z"/>
<path d="M3732 1308 c-7 -7 -12 -16 -12 -22 0 -5 3 -6 7 -3 3 4 12 2 20 -5 21
-17 41 6 23 27 -15 18 -22 19 -38 3z"/>
<path d="M5177 1313 c-10 -9 -9 -32 4 -75 10 -38 29 -52 29 -23 0 24 17 17 42
-17 12 -18 31 -42 41 -53 10 -11 39 -48 64 -83 30 -40 50 -59 56 -53 15 15
-10 66 -47 99 -17 15 -45 48 -61 74 -17 27 -33 48 -36 48 -3 0 -19 20 -35 45
-27 43 -42 53 -57 38z"/>
<path d="M5678 1315 c-2 -3 -3 -26 -1 -52 1 -27 3 -65 4 -85 1 -21 6 -38 11
-38 7 0 9 16 12 107 1 17 4 35 8 39 4 4 3 13 -3 21 -12 14 -22 16 -31 8z"/>
<path d="M8596 1312 c-9 -15 -16 -67 -18 -141 -1 -58 2 -75 17 -89 10 -9 15
-11 11 -4 -4 6 -3 12 2 12 13 0 16 217 3 224 -5 4 -12 2 -15 -2z"/>
<path d="M8844 1305 c-7 -17 4 -37 17 -30 12 8 12 45 -1 45 -6 0 -13 -7 -16
-15z"/>
<path d="M9682 1308 c-10 -10 -5 -48 7 -48 3 0 11 8 17 18 14 21 -7 47 -24 30z"/>
<path d="M6510 1302 c0 -5 11 -14 25 -20 46 -21 71 -12 43 16 -14 14 -68 16
-68 4z"/>
<path d="M7721 1284 c-49 -62 -16 -125 81 -154 28 -9 56 -24 62 -35 13 -23 33
-45 40 -45 3 0 6 10 6 23 0 29 -44 70 -90 86 -57 19 -80 39 -80 70 0 15 9 36
20 46 11 10 17 22 14 26 -10 17 -33 9 -53 -17z"/>
<path d="M8335 1289 c-4 -11 -3 -53 1 -92 4 -40 6 -83 5 -97 -2 -23 -2 -24 14
-8 14 13 16 22 7 46 -6 18 -6 35 -1 43 14 22 8 129 -7 129 -7 0 -16 -9 -19
-21z"/>
<path d="M4150 1290 c0 -5 5 -10 11 -10 5 0 7 5 4 10 -3 6 -8 10 -11 10 -2 0
-4 -4 -4 -10z"/>
<path d="M4552 1289 c5 -14 21 -14 26 0 2 6 -4 11 -13 11 -9 0 -15 -5 -13 -11z"/>
<path d="M4930 1279 c0 -18 2 -19 15 -9 8 7 15 16 15 21 0 5 -7 9 -15 9 -9 0
-15 -9 -15 -21z"/>
<path d="M6342 1264 c-18 -18 -37 -45 -42 -60 -15 -38 -12 -102 6 -140 17 -36
42 -41 35 -8 -10 43 -5 154 8 177 8 14 27 31 42 38 35 14 38 29 7 28 -13 0
-38 -16 -56 -35z"/>
<path d="M4087 1253 c-3 -7 -3 -16 2 -40 0 -4 7 2 15 12 14 20 12 35 -4 35 -5
0 -11 -3 -13 -7z"/>
<path d="M3777 1244 c-3 -5 0 -20 7 -33 10 -18 14 -20 19 -8 6 17 -17 55 -26
41z"/>
<path d="M4561 1231 c-10 -6 -9 -10 3 -14 8 -3 18 -2 21 3 8 13 -9 20 -24 11z"/>
<path d="M4930 1223 c0 -5 5 -15 10 -23 8 -12 10 -11 10 8 0 12 -4 22 -10 22
-5 0 -10 -3 -10 -7z"/>
<path d="M4050 1141 c0 -52 13 -72 33 -51 9 10 9 14 0 17 -16 6 -17 39 -3 48
8 5 7 11 -1 21 -21 25 -29 15 -29 -35z"/>
<path d="M4565 1171 c-3 -5 -1 -12 5 -16 5 -3 10 1 10 9 0 18 -6 21 -15 7z"/>
<path d="M3805 1160 c3 -5 8 -10 11 -10 2 0 4 5 4 10 0 6 -5 10 -11 10 -5 0
-7 -4 -4 -10z"/>
<path d="M7341 1144 c0 -11 3 -14 6 -6 3 7 2 16 -1 19 -3 4 -6 -2 -5 -13z"/>
<path d="M3651 1131 c-9 -6 -11 -18 -6 -37 l7 -29 15 29 c16 30 7 51 -16 37z"/>
<path d="M3817 1103 c6 -41 21 -66 33 -58 18 11 -4 95 -25 95 -10 0 -12 -10
-8 -37z"/>
<path d="M4335 1120 c-11 -18 -1 -130 13 -130 6 0 12 8 13 18 0 9 2 26 5 37
10 47 -13 104 -31 75z"/>
<path d="M6573 1122 c-10 -6 -9 -19 2 -57 8 -26 13 -46 9 -43 -3 3 -17 -5 -31
-18 -14 -13 -32 -24 -39 -24 -8 0 -14 -4 -14 -10 0 -14 25 -12 64 4 24 10 35
22 39 43 6 32 0 71 -14 89 -5 6 -6 14 -2 17 9 9 1 8 -14 -1z"/>
<path d="M9259 1060 c0 -23 -1 -24 -10 -5 -8 19 -9 19 -6 1 1 -11 8 -21 14
-24 17 -5 28 27 14 41 -8 8 -11 5 -12 -13z"/>
<path d="M4080 1047 c0 -14 47 -63 54 -56 2 2 -2 19 -9 37 -14 31 -45 45 -45
19z"/>
<path d="M7859 1014 c-20 -19 -38 -26 -69 -28 -49 -1 -64 -20 -25 -30 30 -8
98 9 113 27 14 18 25 57 15 57 -5 0 -20 -12 -34 -26z"/>
<path d="M3857 1000 c7 -28 33 -48 33 -26 0 9 0 19 1 23 0 4 -8 10 -19 14 -16
6 -19 4 -15 -11z"/>
<path d="M5433 1003 c-17 -6 -17 -20 0 -26 8 -3 13 3 13 14 0 11 0 19 -1 18 0
0 -6 -3 -12 -6z"/>
<path d="M5680 986 c0 -19 5 -26 20 -26 11 0 20 5 20 10 0 6 -4 10 -10 10 -5
0 -9 5 -7 11 1 6 -4 14 -10 16 -8 3 -13 -5 -13 -21z"/>
<path d="M4557 980 c3 -11 12 -20 19 -20 20 0 17 18 -5 29 -16 9 -18 8 -14 -9z"/>
<path d="M8332 984 c1 -9 9 -19 16 -22 9 -3 13 2 10 14 -1 9 -9 19 -16 22 -9
3 -13 -2 -10 -14z"/>
<path d="M5755 970 c-3 -5 -1 -10 4 -10 6 0 11 5 11 10 0 6 -2 10 -4 10 -3 0
-8 -4 -11 -10z"/>
</g>
</svg>
